<svg xmlns="http://www.w3.org/2000/svg" style="display: none;"><symbol id="construction" viewBox="0 0 512 512"><title>construction</title><path style="fill:#CBCDD1;" d="M419.31,317.793c-19.421,0-35.31-15.89-35.31-35.31c0-5.297,3.531-8.828,8.828-8.828 s8.828,3.531,8.828,8.828c0,9.71,7.945,17.655,17.655,17.655s17.655-7.945,17.655-17.655s-7.945-17.655-17.655-17.655 c-2.648,0-4.414-0.883-6.179-2.648c-1.766-1.766-2.648-3.531-2.648-6.179V52.966c0-5.297,3.531-8.828,8.828-8.828l0,0 c5.297,0,8.828,3.531,8.828,8.828v195.09c15.007,3.531,26.483,17.655,26.483,34.428C454.621,301.903,438.731,317.793,419.31,317.793 "/><path style="fill:#FEC24C;" d="M395.476,26.483L205.683,229.517h61.793c6.179,0,12.359,0.883,17.655,2.648l134.179-179.2 C406.069,52.083,395.476,40.607,395.476,26.483"/><path style="fill:#535353;" d="M379.586,512H105.931c-26.483,0-48.552-22.069-48.552-48.552l0,0 c0-26.483,22.069-48.552,48.552-48.552h273.655c26.483,0,48.552,22.069,48.552,48.552l0,0C428.138,489.931,406.069,512,379.586,512"/><g> <path style="fill:#A2A2A2;" d="M136.828,463.448c0-12.359-9.71-22.069-22.069-22.069s-22.069,9.71-22.069,22.069 s9.71,22.069,22.069,22.069S136.828,475.807,136.828,463.448"/> <path style="fill:#A2A2A2;" d="M392.828,463.448c0-12.359-9.71-22.069-22.069-22.069c-12.359,0-22.069,9.71-22.069,22.069 s9.71,22.069,22.069,22.069C383.117,485.517,392.828,475.807,392.828,463.448"/> </g><path style="fill:#BC8D2F;" d="M198.621,414.897h88.276v-26.483h-88.276V414.897z"/><path style="fill:#FEC24C;" d="M180.966,247.172v70.621H84.745c-15.007,0-27.366,12.359-27.366,27.366v43.255h123.586h141.241 V284.248c0-7.062-0.883-14.124-3.531-20.303c-7.945-21.186-28.248-34.428-51.2-34.428h-68.855 C188.91,229.517,180.966,237.462,180.966,247.172"/><g> <path style="fill:#BC8D2F;" d="M84.745,317.793c-15.007,0-27.366,12.359-27.366,27.366v7.945h44.138 c15.007,0,26.483-12.359,26.483-26.483v-8.828H84.745z"/> <path style="fill:#BC8D2F;" d="M265.71,229.517h-40.607v63.559c0,15.007,9.71,28.248,23.834,33.545l73.269,26.483v-68.855 c0-17.655-8.828-34.428-23.835-45.903C288.662,232.166,277.186,229.517,265.71,229.517"/> </g><path style="fill:#CBCDD1;" d="M348.69,463.448c0-10.593,7.945-19.421,17.655-22.069l0,0H242.759H119.172l0,0 c9.71,1.766,17.655,10.593,17.655,22.069s-7.945,19.421-17.655,22.069l0,0h123.586h123.586l0,0 C356.634,482.869,348.69,474.041,348.69,463.448"/><g> <path style="fill:#BC8D2F;" d="M448.441,26.483C448.441,11.476,436.966,0,421.959,0s-26.483,11.476-26.483,26.483 s11.476,26.483,26.483,26.483C436.083,52.966,448.441,41.49,448.441,26.483"/> <path style="fill:#BC8D2F;" d="M390.179,91.807l-3.531-47.669c0-2.648-0.883-4.414-2.648-5.297l-14.124,15.007l3.531,40.607 l-46.786,6.179l-17.655,19.421l3.531,56.497l-64.441,8.828l-15.89,16.772c1.766,1.766,3.531,2.648,6.179,2.648h0.883l75.035-9.71 l15.007-20.303l-3.531-54.731l49.434-6.179L390.179,91.807z"/> </g><path style="fill:#A2A2A2;" d="M436.966,238.345h-35.31c-5.297,0-8.828-3.531-8.828-8.828s3.531-8.828,8.828-8.828h35.31 c5.297,0,8.828,3.531,8.828,8.828S442.262,238.345,436.966,238.345"/></symbol><symbol id="drill" viewBox="0 0 512 512"><title>drill</title><path style="fill:#565656;" d="M104.136,147.85H8.678c-5.207,0-8.678-3.471-8.678-8.678c0-5.207,3.471-8.678,8.678-8.678h95.458 c5.207,0,8.678,3.471,8.678,8.678C112.814,144.379,109.342,147.85,104.136,147.85"/><path style="fill:#C3C7CB;" d="M173.559,173.884h-43.39c-14.753,0-26.034-11.281-26.034-26.034v-17.356 c0-14.753,11.281-26.034,26.034-26.034h43.39V173.884z"/><path style="fill:#F4BA48;" d="M173.559,173.884c0,14.753,11.281,27.77,26.034,30.373l86.78,13.017 c49.464,12.149,129.302,11.281,177.898-0.868c27.77-6.942,47.729-31.241,47.729-59.878v-34.712 c0-28.637-19.092-52.936-46.861-59.878c-46.861-11.281-116.285-13.885-164.014-4.339c-13.885,2.603-27.77,5.207-42.522,7.81 l-59.01,8.678c-14.753,2.603-26.034,14.753-26.034,30.373V173.884z"/><g> <path style="fill:#565656;" d="M242.983,68.013l-43.39,6.942c-14.753,2.603-26.034,14.753-26.034,30.373v69.424 c0,14.753,11.281,27.77,26.034,30.373l43.39,6.942V68.013z"/> <path style="fill:#565656;" d="M451.254,113.138h-52.068c-5.207,0-8.678-3.471-8.678-8.678c0-5.207,3.471-8.678,8.678-8.678h52.068 c5.207,0,8.678,3.471,8.678,8.678C459.932,109.667,456.461,113.138,451.254,113.138"/> <path style="fill:#565656;" d="M451.254,147.85h-52.068c-5.207,0-8.678-3.471-8.678-8.678c0-5.207,3.471-8.678,8.678-8.678h52.068 c5.207,0,8.678,3.471,8.678,8.678C459.932,144.379,456.461,147.85,451.254,147.85"/> </g><g> <path style="fill:#C3C7CB;" d="M338.441,416.867l52.068-52.068h78.102l17.356,52.068H338.441z"/> <path style="fill:#C3C7CB;" d="M348.854,225.084l15.62,70.292h26.034v-69.424C376.624,225.952,362.739,225.952,348.854,225.084"/> </g><g> <path style="fill:#565656;" d="M468.61,364.799v-69.424l-5.207-78.969c-20.827,5.207-45.993,7.81-72.895,8.678v138.847h78.102 V364.799z"/> <path style="fill:#565656;" d="M477.288,460.257H347.119c-5.207,0-8.678-3.471-8.678-8.678v-34.712h147.525v34.712 C485.966,456.785,482.495,460.257,477.288,460.257"/> </g></symbol><symbol id="loader" viewBox="0 0 512 512"><title>loader</title><path style="fill:#535353;" d="M322.207,476.69H48.552C22.069,476.69,0,454.621,0,428.138s22.069-48.552,48.552-48.552h273.655 c26.483,0,48.552,22.069,48.552,48.552S348.69,476.69,322.207,476.69"/><g> <path style="fill:#A2A2A2;" d="M79.448,428.138c0-12.359-9.71-22.069-22.069-22.069s-22.069,9.71-22.069,22.069 c0,12.359,9.71,22.069,22.069,22.069S79.448,440.497,79.448,428.138"/> <path style="fill:#A2A2A2;" d="M335.448,428.138c0-12.359-9.71-22.069-22.069-22.069s-22.069,9.71-22.069,22.069 c0,12.359,9.71,22.069,22.069,22.069S335.448,440.497,335.448,428.138"/> </g><path style="fill:#FEC24C;" d="M459.034,35.31h17.655L512,141.241l-17.655,194.207h-35.31L432.552,97.103L459.034,35.31z"/><path style="fill:#BC8D2F;" d="M450.207,370.759h52.966v-35.31h-52.966V370.759z"/><path style="fill:#FEC24C;" d="M456.386,476.69h-50.317l52.966-105.931h35.31l12.359,36.193c3.531,10.593,3.531,22.952,0,33.545l0,0 C499.641,461.683,479.338,476.69,456.386,476.69"/><path style="fill:#BC8D2F;" d="M440.497,79.448H256L141.241,194.207h73.269l59.145-61.793l161.545-7.945l-2.648-27.366 L440.497,79.448z"/><path style="fill:#CBCDD1;" d="M291.31,428.138c0-10.593,7.945-19.421,17.655-22.069l0,0H185.379H61.793l0,0 c9.71,1.766,17.655,10.593,17.655,22.069c0,11.476-7.945,19.421-17.655,22.069l0,0h123.586h123.586l0,0 C299.255,447.559,291.31,438.731,291.31,428.138"/><path style="fill:#BC8D2F;" d="M141.241,379.586h88.276v-26.483h-88.276V379.586z"/><path style="fill:#FEC24C;" d="M123.586,211.862v70.621H27.366C12.359,282.483,0,294.841,0,309.848v43.255h123.586h141.241V248.938 c0-7.062-0.883-14.124-3.531-20.303c-7.945-21.186-28.248-34.428-51.2-34.428h-68.855 C131.531,194.207,123.586,202.152,123.586,211.862"/><g> <path style="fill:#BC8D2F;" d="M27.366,282.483C12.359,282.483,0,294.841,0,309.848v7.945h44.138 c15.007,0,26.483-12.359,26.483-26.483v-8.828H27.366z"/> <path style="fill:#BC8D2F;" d="M208.331,194.207h-40.607v62.676c0,15.007,9.71,28.248,23.834,33.545l73.269,26.483v-68.855 c0-17.655-8.828-34.428-23.834-45.903C231.283,196.855,219.807,194.207,208.331,194.207"/> </g></symbol></svg>